<svg xmlns="http://www.w3.org/2000/svg" xmlns:xlink="http://www.w3.org/1999/xlink" width="145px" height="45px" viewBox="0 0 145 45"><title>Group 11</title><g id="Website-Chosen-Pages" stroke="none" stroke-width="1" fill="none" fill-rule="evenodd"><g id="Home-Page" transform="translate(-218.000000, -62.000000)" fill="#FFFFFF" fill-rule="nonzero"><g id="Group" transform="translate(164.000000, 61.000000)"><g id="Group-9" transform="translate(54.000000, 1.000000)"><g id="Group-11" transform="translate(0.673295, 0.298295)"><path d="M1.67045455,17.7017045 L3.53970455,12.4437045 L10.8627045,12.4437045 L12.7329545,17.7017045 L14.4034091,17.7017045 L8.05397727,0.247159091 L6.34943182,0.247159091 L0,17.7017045 L1.67045455,17.7017045 Z M10.3527045,11.0117045 L4.04970455,11.0117045 L7.14204545,2.31818182 L7.26136364,2.31818182 L10.3527045,11.0117045 Z M18.5965909,17.7017045 L18.5965909,9.31534091 C18.5965909,8.63352273 18.734375,8.02982955 19.0099432,7.50426136 C19.2855114,6.97869318 19.6633523,6.56818182 20.1434659,6.27272727 C20.6235795,5.97727273 21.1647727,5.82954545 21.7670455,5.82954545 C22.6647727,5.82954545 23.3607955,6.10227273 23.8551136,6.64772727 C24.3494318,7.19318182 24.5965909,7.90909091 24.5965909,8.79545455 L24.5965909,8.79545455 L24.5965909,17.7017045 L26.1477273,17.7017045 L26.1477273,9.08522727 C26.1477273,8.14204545 26.4176136,7.36363636 26.9573864,6.75 C27.4971591,6.13636364 28.2670455,5.82954545 29.2670455,5.82954545 C30.1306818,5.82954545 30.8267045,6.08806818 31.3551136,6.60511364 C31.8835227,7.12215909 32.1477273,7.89772727 32.1477273,8.93181818 L32.1477273,8.93181818 L32.1477273,17.7017045 L33.6647727,17.7017045 L33.6647727,8.93181818 C33.6647727,7.46590909 33.3125,6.35085227 32.6079545,5.58664773 C31.9034091,4.82244318 30.9431818,4.44034091 29.7272727,4.44034091 C28.7727273,4.44034091 27.9616477,4.65482955 27.2940341,5.08380682 C26.6264205,5.51278409 26.1448864,6.09090909 25.8494318,6.81818182 L25.8494318,6.81818182 L25.7386364,6.81818182 C25.4488636,6.07954545 25.0127841,5.49857955 24.4303977,5.07528409 C23.8480114,4.65198864 23.1051136,4.44034091 22.2017045,4.44034091 C21.34375,4.44034091 20.609375,4.63494318 19.9985795,5.02414773 C19.3877841,5.41335227 18.9517045,5.94602273 18.6903409,6.62215909 L18.6903409,6.62215909 L18.5539773,6.62215909 L18.5539773,4.61079545 L17.0795455,4.61079545 L17.0795455,17.7017045 L18.5965909,17.7017045 Z M42.9630682,17.9744318 C43.8380682,17.9744318 44.6122159,17.8338068 45.2855114,17.5525568 C45.9588068,17.2713068 46.5213068,16.8977273 46.9730114,16.4318182 C47.4247159,15.9659091 47.75,15.4573864 47.9488636,14.90625 L47.9488636,14.90625 L46.5085227,14.4375 C46.34375,14.8295455 46.1008523,15.1889205 45.7798295,15.515625 C45.4588068,15.8423295 45.0639205,16.1022727 44.5951705,16.2954545 C44.1264205,16.4886364 43.5823864,16.5852273 42.9630682,16.5852273 C42.0539773,16.5852273 41.2670455,16.3721591 40.6022727,15.9460227 C39.9375,15.5198864 39.4247159,14.9190341 39.0639205,14.1434659 C38.703125,13.3678977 38.5227273,12.4602273 38.5227273,11.4204545 L38.5257045,11.6087045 L48.2727273,11.6079545 L48.2727273,10.8579545 C48.2727273,9.76136364 48.1193182,8.81107955 47.8125,8.00710227 C47.5056818,7.203125 47.0894886,6.53551136 46.5639205,6.00426136 C46.0383523,5.47301136 45.4460227,5.078125 44.7869318,4.81960227 C44.1278409,4.56107955 43.4431818,4.43181818 42.7329545,4.43181818 C41.6022727,4.43181818 40.6065341,4.72301136 39.7457386,5.30539773 C38.8849432,5.88778409 38.2116477,6.69176136 37.7258523,7.71732955 C37.2400568,8.74289773 36.9971591,9.91477273 36.9971591,11.2329545 C36.9971591,12.5568182 37.2400568,13.7258523 37.7258523,14.7400568 C38.2116477,15.7542614 38.9005682,16.546875 39.7926136,17.1178977 C40.6846591,17.6889205 41.7414773,17.9744318 42.9630682,17.9744318 Z M38.5597479,9.984375 C38.6295277,9.36221591 38.7975852,8.77840909 39.0639205,8.23295455 C39.4190341,7.50568182 39.9119318,6.92045455 40.5426136,6.47727273 C41.1732955,6.03409091 41.9034091,5.8125 42.7329545,5.8125 C43.5170455,5.8125 44.2088068,6.00852273 44.8082386,6.40056818 C45.4076705,6.79261364 45.8764205,7.32528409 46.2144886,7.99857955 C46.5525568,8.671875 46.7215909,9.42897727 46.7215909,10.2698864 L46.7215909,10.2698864 L38.5347045,10.2707045 L38.5597479,9.984375 Z M53.1221591,17.7017045 L53.1221591,0.247159091 L51.6051136,0.247159091 L51.6051136,17.7017045 L53.1221591,17.7017045 Z M57.9204545,2.36079545 C58.2329545,2.36079545 58.5014205,2.25426136 58.7258523,2.04119318 C58.9502841,1.828125 59.0625,1.57102273 59.0625,1.26988636 C59.0625,0.96875 58.9502841,0.711647727 58.7258523,0.498579545 C58.5014205,0.285511364 58.2329545,0.178977273 57.9204545,0.178977273 C57.6136364,0.178977273 57.3480114,0.285511364 57.1235795,0.498579545 C56.8991477,0.711647727 56.7869318,0.96875 56.7869318,1.26988636 C56.7869318,1.57102273 56.8991477,1.828125 57.1235795,2.04119318 C57.3480114,2.25426136 57.6136364,2.36079545 57.9204545,2.36079545 Z M58.6704545,17.7017045 L58.6704545,4.61079545 L57.1448864,4.61079545 L57.1448864,17.7017045 L58.6704545,17.7017045 Z M67.9857955,17.9744318 C68.8607955,17.9744318 69.6349432,17.8338068 70.3082386,17.5525568 C70.9815341,17.2713068 71.5440341,16.8977273 71.9957386,16.4318182 C72.4474432,15.9659091 72.7727273,15.4573864 72.9715909,14.90625 L72.9715909,14.90625 L71.53125,14.4375 C71.3664773,14.8295455 71.1235795,15.1889205 70.8025568,15.515625 C70.4815341,15.8423295 70.0866477,16.1022727 69.6178977,16.2954545 C69.1491477,16.4886364 68.6051136,16.5852273 67.9857955,16.5852273 C67.0767045,16.5852273 66.2897727,16.3721591 65.625,15.9460227 C64.9602273,15.5198864 64.4474432,14.9190341 64.0866477,14.1434659 C63.7258523,13.3678977 63.5454545,12.4602273 63.5454545,11.4204545 L63.5487045,11.6087045 L73.2954545,11.6079545 L73.2954545,10.8579545 C73.2954545,9.76136364 73.1420455,8.81107955 72.8352273,8.00710227 C72.5284091,7.203125 72.1122159,6.53551136 71.5866477,6.00426136 C71.0610795,5.47301136 70.46875,5.078125 69.8096591,4.81960227 C69.1505682,4.56107955 68.4659091,4.43181818 67.7556818,4.43181818 C66.625,4.43181818 65.6292614,4.72301136 64.7684659,5.30539773 C63.9076705,5.88778409 63.234375,6.69176136 62.7485795,7.71732955 C62.2627841,8.74289773 62.0198864,9.91477273 62.0198864,11.2329545 C62.0198864,12.5568182 62.2627841,13.7258523 62.7485795,14.7400568 C63.234375,15.7542614 63.9232955,16.546875 64.8153409,17.1178977 C65.7073864,17.6889205 66.7642045,17.9744318 67.9857955,17.9744318 Z M63.5824751,9.984375 C63.652255,9.36221591 63.8203125,8.77840909 64.0866477,8.23295455 C64.4417614,7.50568182 64.9346591,6.92045455 65.5653409,6.47727273 C66.1960227,6.03409091 66.9261364,5.8125 67.7556818,5.8125 C68.5397727,5.8125 69.2315341,6.00852273 69.8309659,6.40056818 C70.4303977,6.79261364 70.8991477,7.32528409 71.2372159,7.99857955 C71.5752841,8.671875 71.7443182,9.42897727 71.7443182,10.2698864 L71.7443182,10.2698864 L63.5577045,10.2707045 L63.5824751,9.984375 Z M88.9005682,18 C90.1619318,18 91.2443182,17.7826705 92.1477273,17.3480114 C93.0511364,16.9133523 93.7443182,16.3238636 94.2272727,15.5795455 C94.7102273,14.8352273 94.9517045,13.9971591 94.9517045,13.0653409 C94.9517045,12.3380682 94.8110795,11.7144886 94.5298295,11.1946023 C94.2485795,10.6747159 93.8764205,10.234375 93.4133523,9.87357955 C92.9502841,9.51278409 92.4403409,9.21306818 91.8835227,8.97443182 C91.3267045,8.73579545 90.7698864,8.53977273 90.2130682,8.38636364 L90.2130682,8.38636364 L88.3721591,7.85795455 C87.9517045,7.73863636 87.5355114,7.59090909 87.1235795,7.41477273 C86.7116477,7.23863636 86.3366477,7.02698864 85.9985795,6.77982955 C85.6605114,6.53267045 85.3920455,6.23579545 85.1931818,5.88920455 C84.9943182,5.54261364 84.8948864,5.13920455 84.8948864,4.67897727 C84.8948864,4.05397727 85.0696023,3.49573864 85.4190341,3.00426136 C85.7684659,2.51278409 86.2514205,2.12784091 86.8678977,1.84943182 C87.484375,1.57102273 88.1988636,1.43181818 89.0113636,1.43181818 C90.1647727,1.43181818 91.1221591,1.71875 91.8835227,2.29261364 C92.6448864,2.86647727 93.0738636,3.63920455 93.1704545,4.61079545 L93.1704545,4.61079545 L94.7130682,4.61079545 C94.6789773,3.72443182 94.4161932,2.93323864 93.9247159,2.23721591 C93.4332386,1.54119318 92.7698864,0.994318182 91.9346591,0.596590909 C91.0994318,0.198863636 90.1392045,1.77635684e-15 89.0539773,1.77635684e-15 C87.9801136,1.77635684e-15 87.0127841,0.200284091 86.1519886,0.600852273 C85.2911932,1.00142045 84.609375,1.55823864 84.1065341,2.27130682 C83.6036932,2.984375 83.3522727,3.80965909 83.3522727,4.74715909 C83.3522727,5.86647727 83.7301136,6.78693182 84.4857955,7.50852273 C85.2414773,8.23011364 86.3039773,8.79545455 87.6732955,9.20454545 L87.6732955,9.20454545 L89.7613636,9.81818182 C90.4829545,10.0284091 91.1178977,10.2698864 91.6661932,10.5426136 C92.2144886,10.8153409 92.6420455,11.1519886 92.9488636,11.5525568 C93.2556818,11.953125 93.4090909,12.4488636 93.4090909,13.0397727 C93.4090909,13.7386364 93.2144886,14.3508523 92.8252841,14.8764205 C92.4360795,15.4019886 91.9019886,15.8110795 91.2230114,16.1036932 C90.5440341,16.3963068 89.7698864,16.5426136 88.9005682,16.5426136 C88.1164773,16.5426136 87.40625,16.4190341 86.7698864,16.171875 C86.1335227,15.9247159 85.6164773,15.5625 85.21875,15.0852273 C84.8210227,14.6079545 84.59375,14.0255682 84.5369318,13.3380682 L84.5369318,13.3380682 L82.9005682,13.3380682 C82.9630682,14.2585227 83.2443182,15.0681818 83.7443182,15.7670455 C84.2443182,16.4659091 84.9318182,17.0127841 85.8068182,17.4076705 C86.6818182,17.8025568 87.7130682,18 88.9005682,18 Z M99.9971591,17.7017045 L99.9971591,9.31534091 C99.9971591,8.63352273 100.134943,8.02982955 100.410511,7.50426136 C100.68608,6.97869318 101.06392,6.56818182 101.544034,6.27272727 C102.024148,5.97727273 102.565341,5.82954545 103.167614,5.82954545 C104.065341,5.82954545 104.761364,6.10227273 105.255682,6.64772727 C105.75,7.19318182 105.997159,7.90909091 105.997159,8.79545455 L105.997159,8.79545455 L105.997159,17.7017045 L107.548295,17.7017045 L107.548295,9.08522727 C107.548295,8.14204545 107.818182,7.36363636 108.357955,6.75 C108.897727,6.13636364 109.667614,5.82954545 110.667614,5.82954545 C111.53125,5.82954545 112.227273,6.08806818 112.755682,6.60511364 C113.284091,7.12215909 113.548295,7.89772727 113.548295,8.93181818 L113.548295,8.93181818 L113.548295,17.7017045 L115.065341,17.7017045 L115.065341,8.93181818 C115.065341,7.46590909 114.713068,6.35085227 114.008523,5.58664773 C113.303977,4.82244318 112.34375,4.44034091 111.127841,4.44034091 C110.173295,4.44034091 109.362216,4.65482955 108.694602,5.08380682 C108.026989,5.51278409 107.545455,6.09090909 107.25,6.81818182 L107.25,6.81818182 L107.139205,6.81818182 C106.849432,6.07954545 106.413352,5.49857955 105.830966,5.07528409 C105.24858,4.65198864 104.505682,4.44034091 103.602273,4.44034091 C102.744318,4.44034091 102.009943,4.63494318 101.399148,5.02414773 C100.788352,5.41335227 100.352273,5.94602273 100.090909,6.62215909 L100.090909,6.62215909 L99.9545455,6.62215909 L99.9545455,4.61079545 L98.4801136,4.61079545 L98.4801136,17.7017045 L99.9971591,17.7017045 Z M119.863636,2.36079545 C120.176136,2.36079545 120.444602,2.25426136 120.669034,2.04119318 C120.893466,1.828125 121.005682,1.57102273 121.005682,1.26988636 C121.005682,0.96875 120.893466,0.711647727 120.669034,0.498579545 C120.444602,0.285511364 120.176136,0.178977273 119.863636,0.178977273 C119.556818,0.178977273 119.291193,0.285511364 119.066761,0.498579545 C118.84233,0.711647727 118.730114,0.96875 118.730114,1.26988636 C118.730114,1.57102273 118.84233,1.828125 119.066761,2.04119318 C119.291193,2.25426136 119.556818,2.36079545 119.863636,2.36079545 Z M120.613636,17.7017045 L120.613636,4.61079545 L119.088068,4.61079545 L119.088068,17.7017045 L120.613636,17.7017045 Z M128.863636,17.8977273 C129.181818,17.8977273 129.448864,17.8735795 129.664773,17.8252841 C129.880682,17.7769886 130.0625,17.7244318 130.210227,17.6676136 L130.210227,17.6676136 L129.886364,16.2954545 C129.778409,16.3238636 129.653409,16.3508523 129.511364,16.3764205 C129.369318,16.4019886 129.198864,16.4147727 129,16.4147727 C128.659091,16.4147727 128.338068,16.3508523 128.036932,16.2230114 C127.735795,16.0951705 127.491477,15.8764205 127.303977,15.5667614 C127.116477,15.2571023 127.022727,14.8295455 127.022727,14.2840909 L127.022727,14.2840909 L127.022705,5.93270455 L129.792614,5.93181818 L129.792614,4.61079545 L127.022705,4.61170455 L127.022727,1.47443182 L125.497159,1.47443182 L125.496705,4.61170455 L123.545455,4.61079545 L123.545455,5.93181818 L125.496705,5.93270455 L125.497159,14.6420455 C125.497159,15.2784091 125.62735,15.8227413 125.887731,16.2750421 L125.991477,16.4403409 C126.321023,16.9232955 126.742898,17.2869318 127.257102,17.53125 C127.771307,17.7755682 128.306818,17.8977273 128.863636,17.8977273 Z M134.752841,17.7017045 L134.752841,9.51988636 C134.752841,8.75852273 134.910511,8.10085227 135.225852,7.546875 C135.541193,6.99289773 135.971591,6.56818182 136.517045,6.27272727 C137.0625,5.97727273 137.684659,5.82954545 138.383523,5.82954545 C139.400568,5.82954545 140.208807,6.140625 140.808239,6.76278409 C141.40767,7.38494318 141.707386,8.23579545 141.707386,9.31534091 L141.707386,9.31534091 L141.707386,17.7017045 L143.232955,17.7017045 L143.232955,9.22159091 C143.232955,8.18181818 143.045455,7.30681818 142.670455,6.59659091 C142.295455,5.88636364 141.772727,5.34943182 141.102273,4.98579545 C140.431818,4.62215909 139.653409,4.44034091 138.767045,4.44034091 C137.778409,4.44034091 136.961648,4.64204545 136.316761,5.04545455 C135.671875,5.44886364 135.196023,5.98863636 134.889205,6.66477273 L134.889205,6.66477273 L134.752841,6.66477273 L134.752841,0.247159091 L133.235795,0.247159091 L133.235795,17.7017045 L134.752841,17.7017045 Z" id="AmelieSmith"></path><path d="M1.71875,39.7017045 L1.71875,34.2073864 L6.96306818,34.2073864 L6.96306818,33.5482955 L1.71875,33.5482955 L1.71875,28.7244318 L7.50284091,28.7244318 L7.50284091,28.0653409 L1.00852273,28.0653409 L1.00852273,39.7017045 L1.71875,39.7017045 Z M13.0596591,39.8153409 C13.6808712,39.8153409 14.219697,39.6732955 14.6761364,39.3892045 C15.1325758,39.1051136 15.4630682,38.7376894 15.6676136,38.2869318 L15.6676136,38.2869318 L15.7244318,38.2869318 L15.7244318,39.7017045 L16.4176136,39.7017045 L16.4176136,30.9744318 L15.7244318,30.9744318 L15.7244318,36.6051136 C15.7244318,37.124053 15.6089015,37.5738636 15.3778409,37.9545455 C15.1467803,38.3352273 14.8399621,38.6278409 14.4573864,38.8323864 C14.0748106,39.0369318 13.65625,39.1392045 13.2017045,39.1392045 C12.500947,39.1392045 11.9299242,38.9147727 11.4886364,38.4659091 C11.0473485,38.0170455 10.8267045,37.4289773 10.8267045,36.7017045 L10.8267045,36.7017045 L10.8267045,30.9744318 L10.1335227,30.9744318 L10.1335227,36.7301136 C10.1335227,37.3664773 10.2585227,37.9147727 10.5085227,38.375 C10.7585227,38.8352273 11.1032197,39.1903409 11.5426136,39.4403409 C11.9820076,39.6903409 12.4876894,39.8153409 13.0596591,39.8153409 Z M19.9857955,39.7017045 L19.9857955,28.0653409 L19.2926136,28.0653409 L19.2926136,39.7017045 L19.9857955,39.7017045 Z M23.5539773,39.7017045 L23.5539773,28.0653409 L22.8607955,28.0653409 L22.8607955,39.7017045 L23.5539773,39.7017045 Z M34.4289773,39.8892045 C35.2168561,39.8892045 35.9015152,39.75 36.4829545,39.4715909 C37.0643939,39.1931818 37.5132576,38.811553 37.8295455,38.3267045 C38.1458333,37.8418561 38.3039773,37.2926136 38.3039773,36.6789773 C38.3039773,36.2585227 38.2272727,35.8873106 38.0738636,35.5653409 C37.9204545,35.2433712 37.7064394,34.9621212 37.4318182,34.7215909 C37.157197,34.4810606 36.8352273,34.2736742 36.4659091,34.0994318 C36.0965909,33.9251894 35.6941288,33.7717803 35.2585227,33.6392045 L35.2585227,33.6392045 L33.9857955,33.2642045 C33.6335227,33.1581439 33.311553,33.0350379 33.0198864,32.8948864 C32.7282197,32.7547348 32.4763258,32.5909091 32.2642045,32.4034091 C32.0520833,32.2159091 31.8882576,32.0018939 31.7727273,31.7613636 C31.657197,31.5208333 31.5994318,31.250947 31.5994318,30.9517045 C31.5994318,30.4857955 31.7244318,30.0729167 31.9744318,29.7130682 C32.2244318,29.3532197 32.5691288,29.0691288 33.0085227,28.8607955 C33.4479167,28.6524621 33.9498106,28.5482955 34.5142045,28.5482955 C35.3513258,28.5482955 36.0340909,28.7717803 36.5625,29.21875 C37.0909091,29.6657197 37.3854167,30.250947 37.4460227,30.9744318 L37.4460227,30.9744318 L38.1448864,30.9744318 C38.1107955,30.3797348 37.938447,29.8503788 37.6278409,29.3863636 C37.3172348,28.9223485 36.8967803,28.5568182 36.3664773,28.2897727 C35.8361742,28.0227273 35.2244318,27.8892045 34.53125,27.8892045 C33.8418561,27.8892045 33.2234848,28.0217803 32.6761364,28.2869318 C32.1287879,28.5520833 31.6960227,28.9166667 31.3778409,29.3806818 C31.0596591,29.844697 30.9005682,30.375947 30.9005682,30.9744318 C30.9005682,31.686553 31.1401515,32.28125 31.6193182,32.7585227 C32.0984848,33.2357955 32.7926136,33.6126894 33.7017045,33.8892045 L33.7017045,33.8892045 L35.0596591,34.2982955 C35.6164773,34.4649621 36.0833333,34.6543561 36.4602273,34.8664773 C36.8371212,35.0785985 37.1221591,35.3304924 37.3153409,35.6221591 C37.5085227,35.9138258 37.6051136,36.2642045 37.6051136,36.6732955 C37.6051136,37.1808712 37.4706439,37.625947 37.2017045,38.0085227 C36.9327652,38.3910985 36.5596591,38.6893939 36.0823864,38.9034091 C35.6051136,39.1174242 35.0539773,39.2244318 34.4289773,39.2244318 C33.8494318,39.2244318 33.3342803,39.1297348 32.8835227,38.9403409 C32.4327652,38.750947 32.0719697,38.4810606 31.8011364,38.1306818 C31.530303,37.780303 31.375947,37.3645833 31.3380682,36.8835227 L31.3380682,36.8835227 L30.6107955,36.8835227 C30.6524621,37.4744318 30.8342803,37.9962121 31.15625,38.4488636 C31.4782197,38.9015152 31.9166667,39.2547348 32.4715909,39.5085227 C33.0265152,39.7623106 33.6789773,39.8892045 34.4289773,39.8892045 Z M43.5426136,39.84375 C43.7168561,39.84375 43.8683712,39.8295455 43.9971591,39.8011364 C44.125947,39.7727273 44.2433712,39.7395833 44.3494318,39.7017045 L44.3494318,39.7017045 L44.1789773,39.0710227 C44.0956439,39.1013258 44.0075758,39.125947 43.9147727,39.1448864 C43.8219697,39.1638258 43.7130682,39.1732955 43.5880682,39.1732955 C43.3304924,39.1732955 43.0890152,39.1193182 42.8636364,39.0113636 C42.6382576,38.9034091 42.4564394,38.7367424 42.3181818,38.5113636 C42.1799242,38.2859848 42.1107955,37.9952652 42.1107955,37.6392045 L42.1107955,37.6392045 L42.1107045,31.5947045 L43.9460227,31.59375 L43.9460227,30.9744318 L42.1107045,30.9747045 L42.1107955,28.8835227 L41.4232955,28.8835227 L41.4227045,30.9747045 L40.1335227,30.9744318 L40.1335227,31.59375 L41.4227045,31.5947045 L41.4232955,37.7642045 C41.4232955,38.1408279 41.4970431,38.4701415 41.6445385,38.7521452 L41.7244318,38.8892045 C41.9251894,39.1998106 42.1875,39.436553 42.5113636,39.5994318 C42.8352273,39.7623106 43.1789773,39.84375 43.5426136,39.84375 Z M48.8267045,39.8892045 C49.2888258,39.8892045 49.7045455,39.8106061 50.0738636,39.6534091 C50.4431818,39.4962121 50.7594697,39.2840909 51.0227273,39.0170455 C51.2859848,38.75 51.4933712,38.4535985 51.6448864,38.1278409 L51.6448864,38.1278409 L51.6960227,38.1278409 L51.6960227,39.7017045 L52.3892045,39.7017045 L52.3892045,33.6051136 C52.3892045,33.124053 52.3077652,32.7102273 52.1448864,32.3636364 C51.9820076,32.0170455 51.7613636,31.7320076 51.4829545,31.5085227 C51.2045455,31.2850379 50.8882576,31.1183712 50.5340909,31.0085227 C50.1799242,30.8986742 49.8077652,30.84375 49.4176136,30.84375 C48.9668561,30.84375 48.5359848,30.9119318 48.125,31.0482955 C47.7140152,31.1846591 47.3503788,31.3910985 47.0340909,31.6676136 C46.717803,31.9441288 46.4763258,32.2907197 46.3096591,32.7073864 L46.3096591,32.7073864 L46.9630682,32.9517045 C47.1335227,32.5198864 47.4318182,32.1666667 47.8579545,31.8920455 C48.2840909,31.6174242 48.8096591,31.4801136 49.4346591,31.4801136 C50.1392045,31.4801136 50.6922348,31.6676136 51.09375,32.0426136 C51.4952652,32.4176136 51.6960227,32.9232955 51.6960227,33.5596591 L51.6960227,33.5596591 L51.6960227,33.9232955 C51.6960227,34.1467803 51.5965909,34.313447 51.3977273,34.4232955 C51.1988636,34.5331439 50.9251894,34.6136364 50.5767045,34.6647727 C50.2282197,34.7159091 49.8323864,34.7679924 49.3892045,34.8210227 C48.8058712,34.8929924 48.3039773,34.9943182 47.8835227,35.125 C47.4630682,35.2556818 47.1183712,35.4214015 46.8494318,35.6221591 C46.5804924,35.8229167 46.3816288,36.061553 46.2528409,36.3380682 C46.124053,36.6145833 46.0596591,36.9346591 46.0596591,37.2982955 C46.0596591,37.8513258 46.1856061,38.3210227 46.4375,38.7073864 C46.6893939,39.09375 47.0246212,39.3873106 47.4431818,39.5880682 C47.8617424,39.7888258 48.3229167,39.8892045 48.8267045,39.8892045 Z M48.8948864,39.2471591 C48.2850379,39.2471591 47.7755682,39.0748106 47.3664773,38.7301136 C46.9573864,38.3854167 46.7528409,37.9157197 46.7528409,37.3210227 C46.7528409,36.9611742 46.844697,36.6543561 47.0284091,36.4005682 C47.2121212,36.1467803 47.5037879,35.9412879 47.9034091,35.7840909 C48.3030303,35.6268939 48.8210227,35.5104167 49.4573864,35.4346591 C49.6695076,35.4081439 49.8882576,35.3787879 50.1136364,35.3465909 C50.3390152,35.3143939 50.5549242,35.2765152 50.7613636,35.2329545 C50.967803,35.1893939 51.1534091,35.1382576 51.3181818,35.0795455 C51.4829545,35.0208333 51.6089015,34.9535985 51.6960227,34.8778409 L51.6960227,34.8778409 L51.6960227,36.1619318 C51.6960227,36.7528409 51.5767045,37.28125 51.3380682,37.7471591 C51.0994318,38.2130682 50.7689394,38.5795455 50.3465909,38.8465909 C49.9242424,39.1136364 49.4403409,39.2471591 48.8948864,39.2471591 Z M58.5653409,39.8835227 C59.1335227,39.8835227 59.6467803,39.7679924 60.1051136,39.5369318 C60.563447,39.3058712 60.9403409,38.9857955 61.2357955,38.5767045 C61.53125,38.1676136 61.7206439,37.6941288 61.8039773,37.15625 L61.8039773,37.15625 L61.0994318,37.15625 C61.0236742,37.5767045 60.8664773,37.9441288 60.6278409,38.2585227 C60.3892045,38.5729167 60.092803,38.8153409 59.7386364,38.9857955 C59.3844697,39.15625 58.9933712,39.2414773 58.5653409,39.2414773 C57.9592803,39.2414773 57.4251894,39.0710227 56.9630682,38.7301136 C56.500947,38.3892045 56.1410985,37.9261364 55.8835227,37.3409091 C55.625947,36.7556818 55.4971591,36.09375 55.4971591,35.3551136 C55.4971591,34.6051136 55.6297348,33.9393939 55.8948864,33.3579545 C56.1600379,32.7765152 56.5236742,32.3200758 56.9857955,31.9886364 C57.4479167,31.657197 57.9744318,31.4914773 58.5653409,31.4914773 C59.2244318,31.4914773 59.780303,31.6856061 60.2329545,32.0738636 C60.6856061,32.4621212 60.96875,32.9517045 61.0823864,33.5426136 L61.0823864,33.5426136 L61.7869318,33.5426136 C61.7035985,33.0085227 61.5113636,32.5388258 61.2102273,32.1335227 C60.9090909,31.7282197 60.530303,31.4119318 60.0738636,31.1846591 C59.6174242,30.9573864 59.1126894,30.84375 58.5596591,30.84375 C57.8248106,30.84375 57.1751894,31.0407197 56.6107955,31.4346591 C56.0464015,31.8285985 55.6051136,32.3664773 55.2869318,33.0482955 C54.96875,33.7301136 54.8096591,34.5028409 54.8096591,35.3664773 C54.8096591,36.2301136 54.967803,37.0028409 55.2840909,37.6846591 C55.6003788,38.3664773 56.0407197,38.9034091 56.6051136,39.2954545 C57.1695076,39.6875 57.8229167,39.8835227 58.5653409,39.8835227 Z M64.8551136,28.0653409 L64.1619318,28.0653409 L64.1619318,39.7017045 L64.8551136,39.7017045 L64.8547045,36.2047045 L65.9197045,35.1807045 L69.4971591,39.7017045 L70.3835227,39.7017045 L66.4237045,34.7257045 L70.2017045,30.9744318 L69.2982955,30.9744318 L64.9346591,35.2982955 L64.8547045,35.2987045 L64.8551136,28.0653409 Z M80.2301136,39.7017045 C81.3854167,39.7017045 82.3683712,39.469697 83.1789773,39.0056818 C83.9895833,38.5416667 84.6089015,37.8731061 85.0369318,37 C85.4649621,36.1268939 85.6808712,35.0748106 85.6847105,33.84375 C85.688447,32.6392045 85.4829545,31.6060606 85.0681818,30.7443182 C84.6534091,29.8825758 84.0577652,29.2206439 83.28125,28.7585227 C82.5047348,28.2964015 81.5710227,28.0653409 80.4801136,28.0653409 L80.4801136,28.0653409 L77.0028409,28.0653409 L77.0028409,39.7017045 L80.2301136,39.7017045 Z M80.2017045,39.0426136 L77.7130682,39.0426136 L77.7130682,28.7244318 L80.4517045,28.7244318 C81.4251894,28.7244318 82.2481061,28.9289773 82.9204545,29.3380682 C83.592803,29.7471591 84.1051136,30.3333333 84.4573864,31.0965909 C84.8096591,31.8598485 84.9858537,32.7755682 84.9858537,33.84375 C84.9895833,34.9270833 84.8087121,35.8570076 84.4431818,36.6335227 C84.0776515,37.4100379 83.5388258,38.0056818 82.8267045,38.4204545 C82.1145833,38.8352273 81.2395833,39.0426136 80.2017045,39.0426136 L80.2017045,39.0426136 Z M91.6164773,39.8835227 C92.1922348,39.8835227 92.6931818,39.7869318 93.1193182,39.59375 C93.5454545,39.4005682 93.8977273,39.1590909 94.1761364,38.8693182 C94.4545455,38.5795455 94.6600379,38.2888258 94.7926136,37.9971591 L94.7926136,37.9971591 L94.1619318,37.7414773 C94.0520833,37.9573864 93.8892045,38.1808712 93.6732955,38.4119318 C93.4573864,38.6429924 93.1799242,38.8390152 92.8409091,39 C92.5018939,39.1609848 92.09375,39.2414773 91.6164773,39.2414773 C90.9498106,39.2414773 90.3778409,39.0738636 89.9005682,38.7386364 C89.4232955,38.4034091 89.0568182,37.9469697 88.8011364,37.3693182 C88.5454545,36.7916667 88.4176136,36.1392045 88.4176136,35.4119318 L88.4187045,35.4917045 L95.0767045,35.4914773 L95.0767045,35.0596591 C95.0767045,34.4119318 94.9810606,33.8285985 94.7897727,33.3096591 C94.5984848,32.7907197 94.3352273,32.3475379 94,31.9801136 C93.6647727,31.6126894 93.2784091,31.3314394 92.8409091,31.1363636 C92.4034091,30.9412879 91.9403409,30.84375 91.4517045,30.84375 C90.7320076,30.84375 90.0918561,31.0407197 89.53125,31.4346591 C88.9706439,31.8285985 88.530303,32.3664773 88.2102273,33.0482955 C87.8901515,33.7301136 87.7301136,34.5066288 87.7301136,35.3778409 C87.7301136,36.2452652 87.8892045,37.0179924 88.2073864,37.6960227 C88.5255682,38.374053 88.9763258,38.9081439 89.5596591,39.2982955 C90.1429924,39.688447 90.8285985,39.8835227 91.6164773,39.8835227 Z M88.4301948,34.841199 C88.4707792,34.2758001 88.6038961,33.757711 88.8295455,33.2869318 C89.092803,32.7376894 89.4507576,32.3011364 89.9034091,31.9772727 C90.3560606,31.6534091 90.8721591,31.4914773 91.4517045,31.4914773 C92.0047348,31.4914773 92.5028409,31.6410985 92.9460227,31.9403409 C93.3892045,32.2395833 93.7395833,32.6429924 93.9971591,33.1505682 C94.2547348,33.6581439 94.3835227,34.2282197 94.3835227,34.8607955 L94.3835227,34.8607955 L88.4287045,34.8617045 L88.4301948,34.841199 Z M100.036932,39.8835227 C100.64678,39.8835227 101.181818,39.7793561 101.642045,39.5710227 C102.102273,39.3626894 102.463068,39.0729167 102.724432,38.7017045 C102.985795,38.3304924 103.116477,37.9043561 103.116477,37.4232955 C103.116477,36.8589015 102.942235,36.3863636 102.59375,36.0056818 C102.245265,35.625 101.726326,35.3494318 101.036932,35.1789773 L101.036932,35.1789773 L99.6960227,34.84375 C99.1278409,34.7035985 98.7054924,34.4981061 98.4289773,34.2272727 C98.1524621,33.9564394 98.0142045,33.6126894 98.0142045,33.1960227 C98.0142045,32.6846591 98.217803,32.2698864 98.625,31.9517045 C99.032197,31.6335227 99.5558712,31.4744318 100.196023,31.4744318 C100.59375,31.4744318 100.935606,31.5378788 101.221591,31.6647727 C101.507576,31.7916667 101.745265,31.9706439 101.934659,32.2017045 C102.124053,32.4327652 102.269886,32.7073864 102.372159,33.0255682 L102.372159,33.0255682 L103.014205,32.8551136 C102.805871,32.2111742 102.46875,31.7149621 102.002841,31.3664773 C101.536932,31.0179924 100.934659,30.84375 100.196023,30.84375 C99.6392045,30.84375 99.1448864,30.9441288 98.7130682,31.1448864 C98.28125,31.3456439 97.9422348,31.624053 97.6960227,31.9801136 C97.4498106,32.3361742 97.3267045,32.749053 97.3267045,33.21875 C97.3267045,33.7831439 97.5047348,34.2575758 97.8607955,34.6420455 C98.2168561,35.0265152 98.750947,35.3058712 99.4630682,35.4801136 L99.4630682,35.4801136 L100.855114,35.8210227 C101.377841,35.9498106 101.767992,36.1524621 102.025568,36.4289773 C102.283144,36.7054924 102.411932,37.0445076 102.411932,37.4460227 C102.411932,37.9725379 102.193182,38.4043561 101.755682,38.7414773 C101.318182,39.0785985 100.743371,39.2471591 100.03125,39.2471591 C99.3873106,39.2471591 98.8674242,39.0984848 98.4715909,38.8011364 C98.0757576,38.5037879 97.8153409,38.0710227 97.6903409,37.5028409 L97.6903409,37.5028409 L97.0255682,37.6732955 C97.1732955,38.3854167 97.5085227,38.9318182 98.03125,39.3125 C98.5539773,39.6931818 99.2225379,39.8835227 100.036932,39.8835227 Z M105.894886,29.4289773 C106.046402,29.4289773 106.177083,29.375947 106.286932,29.2698864 C106.39678,29.1638258 106.451705,29.0350379 106.451705,28.8835227 C106.451705,28.7320076 106.39678,28.6032197 106.286932,28.4971591 C106.177083,28.3910985 106.046402,28.3380682 105.894886,28.3380682 C105.739583,28.3380682 105.607008,28.3910985 105.497159,28.4971591 C105.387311,28.6032197 105.332386,28.7320076 105.332386,28.8835227 C105.332386,29.0350379 105.387311,29.1638258 105.497159,29.2698864 C105.607008,29.375947 105.739583,29.4289773 105.894886,29.4289773 Z M106.235795,39.7017045 L106.235795,30.9744318 L105.548295,30.9744318 L105.548295,39.7017045 L106.235795,39.7017045 Z M112.292614,43.15625 C112.974432,43.15625 113.57197,43.0369318 114.085227,42.7982955 C114.598485,42.5596591 114.998106,42.1998106 115.284091,41.71875 C115.570076,41.2376894 115.713068,40.6335227 115.713068,39.90625 L115.713068,39.90625 L115.713068,30.9744318 L115.042614,30.9744318 L115.042614,32.9232955 L114.963068,32.9232955 C114.826705,32.5482955 114.633523,32.2035985 114.383523,31.8892045 C114.133523,31.5748106 113.823864,31.3219697 113.454545,31.1306818 C113.085227,30.9393939 112.648674,30.84375 112.144886,30.84375 C111.440341,30.84375 110.826705,31.0359848 110.303977,31.4204545 C109.78125,31.8049242 109.376894,32.3352273 109.090909,33.0113636 C108.804924,33.6875 108.661932,34.4630682 108.661932,35.3380682 C108.661932,36.2130682 108.807765,36.9734848 109.099432,37.6193182 C109.391098,38.2651515 109.798295,38.7660985 110.321023,39.1221591 C110.84375,39.4782197 111.449811,39.65625 112.139205,39.65625 C112.616477,39.65625 113.042614,39.5729167 113.417614,39.40625 C113.792614,39.2395833 114.109848,39.0094697 114.369318,38.7159091 C114.628788,38.4223485 114.824811,38.0861742 114.957386,37.7073864 L114.957386,37.7073864 L115.025568,37.7073864 L115.025568,39.8778409 C115.025568,40.7717803 114.780303,41.4356061 114.289773,41.8693182 C113.799242,42.3030303 113.133523,42.5198864 112.292614,42.5198864 C111.826705,42.5198864 111.416667,42.4573864 111.0625,42.3323864 C110.708333,42.2073864 110.411932,42.0350379 110.173295,41.8153409 C109.934659,41.5956439 109.750947,41.3456439 109.622159,41.0653409 L109.622159,41.0653409 L109.042614,41.40625 C109.201705,41.7660985 109.431818,42.0767045 109.732955,42.3380682 C110.034091,42.5994318 110.400568,42.8011364 110.832386,42.9431818 C111.264205,43.0852273 111.750947,43.15625 112.292614,43.15625 Z M112.201705,39.0142045 C111.60322,39.0142045 111.091856,38.8579545 110.667614,38.5454545 C110.243371,38.2329545 109.917614,37.8011364 109.690341,37.25 C109.463068,36.6988636 109.349432,36.0596591 109.349432,35.3323864 C109.349432,34.6089015 109.462121,33.9573864 109.6875,33.3778409 C109.912879,32.7982955 110.237689,32.3390152 110.661932,32 C111.086174,31.6609848 111.599432,31.4914773 112.201705,31.4914773 C112.792614,31.4914773 113.300189,31.6581439 113.724432,31.9914773 C114.148674,32.3248106 114.472538,32.78125 114.696023,33.3607955 C114.919508,33.9403409 115.03125,34.5975379 115.03125,35.3323864 C115.03125,36.0899621 114.916667,36.7443182 114.6875,37.2954545 C114.458333,37.8465909 114.132576,38.2708333 113.710227,38.5681818 C113.287879,38.8655303 112.785038,39.0142045 112.201705,39.0142045 Z M119.315341,39.7017045 L119.315341,34.0426136 C119.315341,33.5350379 119.423295,33.0909091 119.639205,32.7102273 C119.855114,32.3295455 120.152462,32.0331439 120.53125,31.8210227 C120.910038,31.6089015 121.341856,31.5028409 121.826705,31.5028409 C122.550189,31.5028409 123.132576,31.7291667 123.573864,32.1818182 C124.015152,32.6344697 124.235795,33.2320076 124.235795,33.9744318 L124.235795,33.9744318 L124.235795,39.7017045 L124.928977,39.7017045 L124.928977,33.9460227 C124.928977,33.3096591 124.80303,32.7613636 124.551136,32.3011364 C124.299242,31.8409091 123.950758,31.4857955 123.505682,31.2357955 C123.060606,30.9857955 122.544508,30.8607955 121.957386,30.8607955 C121.336174,30.8607955 120.800189,30.9971591 120.349432,31.2698864 C119.898674,31.5426136 119.571023,31.9043561 119.366477,32.3551136 L119.366477,32.3551136 L119.298295,32.3551136 L119.298295,30.9744318 L118.622159,30.9744318 L118.622159,39.7017045 L119.315341,39.7017045 Z M131.207386,39.8835227 C131.783144,39.8835227 132.284091,39.7869318 132.710227,39.59375 C133.136364,39.4005682 133.488636,39.1590909 133.767045,38.8693182 C134.045455,38.5795455 134.250947,38.2888258 134.383523,37.9971591 L134.383523,37.9971591 L133.752841,37.7414773 C133.642992,37.9573864 133.480114,38.1808712 133.264205,38.4119318 C133.048295,38.6429924 132.770833,38.8390152 132.431818,39 C132.092803,39.1609848 131.684659,39.2414773 131.207386,39.2414773 C130.54072,39.2414773 129.96875,39.0738636 129.491477,38.7386364 C129.014205,38.4034091 128.647727,37.9469697 128.392045,37.3693182 C128.136364,36.7916667 128.008523,36.1392045 128.008523,35.4119318 L128.009705,35.4917045 L134.667614,35.4914773 L134.667614,35.0596591 C134.667614,34.4119318 134.57197,33.8285985 134.380682,33.3096591 C134.189394,32.7907197 133.926136,32.3475379 133.590909,31.9801136 C133.255682,31.6126894 132.869318,31.3314394 132.431818,31.1363636 C131.994318,30.9412879 131.53125,30.84375 131.042614,30.84375 C130.322917,30.84375 129.682765,31.0407197 129.122159,31.4346591 C128.561553,31.8285985 128.121212,32.3664773 127.801136,33.0482955 C127.481061,33.7301136 127.321023,34.5066288 127.321023,35.3778409 C127.321023,36.2452652 127.480114,37.0179924 127.798295,37.6960227 C128.116477,38.374053 128.567235,38.9081439 129.150568,39.2982955 C129.733902,39.688447 130.419508,39.8835227 131.207386,39.8835227 Z M128.021104,34.841199 C128.061688,34.2758001 128.194805,33.757711 128.420455,33.2869318 C128.683712,32.7376894 129.041667,32.3011364 129.494318,31.9772727 C129.94697,31.6534091 130.463068,31.4914773 131.042614,31.4914773 C131.595644,31.4914773 132.09375,31.6410985 132.536932,31.9403409 C132.980114,32.2395833 133.330492,32.6429924 133.588068,33.1505682 C133.845644,33.6581439 133.974432,34.2282197 133.974432,34.8607955 L133.974432,34.8607955 L128.019705,34.8617045 L128.021104,34.841199 Z M137.752841,39.7017045 L137.752841,33.9517045 C137.752841,33.4820076 137.860795,33.0643939 138.076705,32.6988636 C138.292614,32.3333333 138.589015,32.0464015 138.965909,31.8380682 C139.342803,31.6297348 139.773674,31.5255682 140.258523,31.5255682 C140.349432,31.5255682 140.426136,31.530303 140.488636,31.5397727 C140.551136,31.5492424 140.605114,31.5558712 140.650568,31.5596591 L140.650568,31.5596591 L140.650568,30.8607955 C140.597538,30.8570076 140.54072,30.8551136 140.480114,30.8551136 L140.480114,30.8551136 L140.298295,30.8551136 C139.722538,30.8551136 139.20928,30.9905303 138.758523,31.2613636 C138.307765,31.532197 137.987689,31.8910985 137.798295,32.3380682 L137.798295,32.3380682 L137.735795,32.3380682 L137.735795,30.9744318 L137.059659,30.9744318 L137.059659,39.7017045 L137.752841,39.7017045 Z" id="FullStackDesigner"></path></g></g></g></g></g></svg>